<?xml version="1.0" standalone="no"?><!DOCTYPE svg PUBLIC "-//W3C//DTD SVG 1.1//EN" "http://www.w3.org/Graphics/SVG/1.1/DTD/svg11.dtd"><svg t="1503555001892" class="icon" style="" viewBox="0 0 1024 1024" version="1.1" xmlns="http://www.w3.org/2000/svg" p-id="1983" xmlns:xlink="http://www.w3.org/1999/xlink" width="32" height="32"><defs><style type="text/css"></style></defs><path d="M321.991844 353.001244l55.402865-47.131226s-53.004029-51.879871-36.843499-94.545426c0 0-46.486146 70.010904-18.559366 141.676652z" fill="#231815" p-id="1984"></path><path d="M321.991844 356.441668a3.440424 3.440424 0 0 1-3.206475-2.19155c-14.784361-37.941854-8.853931-75.307437-1.274677-99.971835 8.183908-26.631461 19.689545-44.125155 20.174645-44.856246a3.443004 3.443004 0 0 1 4.436427-1.157702 3.438704 3.438704 0 0 1 1.647103 4.279887c-15.187751 40.097279 35.517215 90.365312 36.031558 90.867613a3.443004 3.443004 0 0 1-0.176322 5.078926l-55.402864 47.131226a3.446445 3.446445 0 0 1-2.229395 0.819681z m12.057825-125.875646c-3.285605 6.994382-6.928153 15.817348-10.023674 25.933054-6.908371 22.573481-12.385526 56.233727-0.505743 90.684411l48.840257-41.549138c-8.969185-9.487829-37.273551-41.97059-38.31084-75.068327z" fill="#231815" p-id="1985"></path><path d="M721.108529 353.001244l-55.402865-47.131226s53.002309-51.879871 36.841778-94.545426c0 0 46.485286 70.010904 18.561087 141.676652z" fill="#231815" p-id="1986"></path><path d="M721.108529 356.441668a3.440424 3.440424 0 0 1-2.229395-0.819681l-55.402865-47.131226a3.436983 3.436983 0 0 1-0.178042-5.078066c0.512623-0.504022 51.202967-50.81592 36.032419-90.868473a3.440424 3.440424 0 0 1 6.082669-3.122185c0.4851 0.73195 11.992457 18.224785 20.175506 44.856246 7.578394 24.665258 13.509684 62.029981-1.274677 99.971835a3.446445 3.446445 0 0 1-3.205615 2.19155z m-50.370385-50.807319l48.841116 41.549998c16.113225-46.691712 0.699266-92.457089-10.532857-116.528874-1.084594 33.065913-29.345955 65.500509-38.308259 74.978876z" fill="#231815" p-id="1987"></path><path d="M227.38191 542.335507c0 163.598173 132.623177 296.22221 296.221349 296.22221 163.598173 0 296.218769-132.624037 296.21877-296.22221 0-163.599033-132.620597-296.218769-296.21877-296.218769-163.598173 0-296.22135 132.620597-296.221349 296.218769z m0 0" fill="#4D308E" p-id="1988"></path><path d="M523.603259 846.124069c-41.008992 0-80.782011-8.049732-118.213822-23.874821-36.191538-15.277202-68.670859-37.226246-96.537432-65.092819-27.868293-27.869153-49.817337-60.415562-65.091098-96.540012-15.82939-37.431811-23.879122-77.271919-23.879121-118.211242 0-41.009852 8.048871-80.782871 23.879121-118.213822 15.273761-36.191538 37.221945-68.669999 65.091098-96.537431 27.866573-27.869153 60.412982-49.818197 96.537432-65.091959 37.431811-15.82853 77.271919-23.879122 118.213822-23.879121 40.939323 0 80.779431 8.049732 118.211242 23.879121 36.194979 15.273761 68.670859 37.221945 96.540012 65.091959 27.865713 27.866573 49.815616 60.412982 65.092819 96.537431 15.824229 37.431811 23.874821 77.271919 23.874821 118.213822 0 41.009852-8.049732 80.779431-23.874821 118.211242-15.277202 36.194979-37.226246 68.670859-65.092819 96.540012-27.869153 27.865713-60.415562 49.815616-96.540012 65.092819-37.431811 15.825089-77.20225 23.874821-118.211242 23.874821z m0-592.438399c-38.946458 0-76.791119 7.636881-112.364241 22.705077-34.33715 14.518588-65.230435 35.368417-91.722559 61.8614-26.492123 26.488683-47.338511 57.384549-61.8571 91.718258-15.072497 35.576562-22.707657 73.350696-22.707657 112.365102s7.635161 76.791119 22.707657 112.365101c14.518588 34.404238 35.364976 65.230435 61.8571 91.722559s57.385409 47.339371 91.722559 61.8571c35.573122 15.071637 73.350696 22.708517 112.364241 22.708517 38.943017 0 76.787679-7.636881 112.365102-22.708517 34.404238-14.517728 65.230435-35.364976 91.719118-61.8571 26.492123-26.492123 47.342812-57.385409 61.86054-91.722559 15.069056-35.573122 22.705077-73.350696 22.705077-112.365101s-7.636881-76.787679-22.705077-112.365102c-14.517728-34.333709-35.368417-65.229575-61.86054-91.718258-26.488683-26.492984-57.385409-47.342812-91.719118-61.8614-35.577423-15.068196-73.351556-22.705077-112.365102-22.705077z m0 0" fill="#231815" p-id="1989"></path><path d="M251.120834 518.599163c0 150.484997 121.994848 272.478985 272.482425 272.478985 150.484997 0 272.482425-121.993988 272.482426-272.478985 0-150.487578-121.997428-272.481565-272.482426-272.481565-150.488438-0.00086-272.482425 121.993128-272.482425 272.481565z m0 0" fill="#705EA7" p-id="1990"></path><path d="M523.603259 846.124069c-41.008992 0-80.782011-8.049732-118.213822-23.874821-36.191538-15.277202-68.670859-37.226246-96.537432-65.092819-27.868293-27.869153-49.817337-60.415562-65.091098-96.540012-15.82939-37.431811-23.879122-77.271919-23.879121-118.211242 0-41.009852 8.048871-80.782871 23.879121-118.213822 15.273761-36.191538 37.221945-68.669999 65.091098-96.537431 27.866573-27.869153 60.412982-49.818197 96.537432-65.091959 37.431811-15.82853 77.271919-23.879122 118.213822-23.879121 40.939323 0 80.779431 8.049732 118.211242 23.879121 36.194979 15.273761 68.670859 37.221945 96.540012 65.091959 27.865713 27.866573 49.815616 60.412982 65.092819 96.537431 15.824229 37.431811 23.874821 77.271919 23.874821 118.213822 0 41.009852-8.049732 80.779431-23.874821 118.211242-15.277202 36.194979-37.226246 68.670859-65.092819 96.540012-27.869153 27.865713-60.415562 49.815616-96.540012 65.092819-37.431811 15.825089-77.20225 23.874821-118.211242 23.874821z m0-592.438399c-38.946458 0-76.791119 7.636881-112.364241 22.705077-34.33715 14.518588-65.230435 35.368417-91.722559 61.8614-26.492123 26.488683-47.338511 57.384549-61.8571 91.718258-15.072497 35.576562-22.707657 73.350696-22.707657 112.365102s7.635161 76.791119 22.707657 112.365101c14.518588 34.404238 35.364976 65.230435 61.8571 91.722559s57.385409 47.339371 91.722559 61.8571c35.573122 15.071637 73.350696 22.708517 112.364241 22.708517 38.943017 0 76.787679-7.636881 112.365102-22.708517 34.404238-14.517728 65.230435-35.364976 91.719118-61.8571 26.492123-26.492123 47.342812-57.385409 61.86054-91.722559 15.069056-35.573122 22.705077-73.350696 22.705077-112.365101s-7.636881-76.787679-22.705077-112.365102c-14.517728-34.333709-35.368417-65.229575-61.86054-91.718258-26.488683-26.492984-57.385409-47.342812-91.719118-61.8614-35.577423-15.068196-73.351556-22.705077-112.365102-22.705077z m0 0" fill="#231815" p-id="1991"></path><path d="M429.542933 317.401459c0 16.794429 42.111647 30.411626 94.060326 30.411626 51.948679 0 94.060327-13.617197 94.060327-30.411626 0-16.796149-42.111647-30.413346-94.060327-30.413347-51.948679 0-94.060327 13.617197-94.060326 30.413347z m0 0" fill="#9A97C6" p-id="1992"></path><path d="M347.227353 457.779351c0 37.383645 12.122333 71.942702 31.808438 90.650006 19.688685 18.692683 43.940233 18.692683 63.627198 0 19.686965-18.707304 31.817899-53.266362 31.817899-90.650006 0-37.398267-12.130934-71.954744-31.817899-90.659468-19.686965-18.693543-43.938513-18.693543-63.627198 0-19.686105 18.703864-31.808438 53.260341-31.808438 90.659468z m0 0M545.613371 457.779351c0 37.383645 12.122333 71.942702 31.808438 90.650006 19.688685 18.692683 43.939373 18.692683 63.627198 0 19.687825-18.707304 31.817899-53.266362 31.817899-90.650006 0-37.398267-12.130934-71.954744-31.817899-90.659468-19.687825-18.693543-43.938513-18.693543-63.627198 0-19.686965 18.703864-31.808438 53.260341-31.808438 90.659468z m0 0" fill="#231815" p-id="1993"></path><path d="M367.071717 616.988403l56.759252 36.499456-30.963814 37.430091z" fill="#F5F5F5" p-id="1994"></path><path d="M360.701773 621.912509l56.759251 36.499457-1.608398-6.00268c-7.241232 14.247655-16.989673 26.990125-26.54717 39.733455l14.589117-1.096635c-12.370904-12.74763-19.001461-30.736746-24.712564-47.215517-3.455906-9.970348-6.544546-20.138521-8.970905-30.412486l-13.055548 8.005006 5.168376 1.345206c4.152592 1.082013 8.870273 0.356084 11.749048-3.147988 2.310245-2.812546 1.673766-7.38659-2.253478-8.409256l-5.168377-1.345206c-4.821754-1.256615-14.705231 1.022666-13.055548 8.005007 2.508069 10.621448 5.745508 21.10614 9.316668 31.411069 5.908068 17.04644 13.024584 36.04704 25.807479 49.221283 3.789627 3.904881 11.255346 3.348392 14.589117-1.096635 10.282567-13.710949 20.709631-27.507909 28.499611-42.836717 1.042448-2.051353 0.334581-4.752945-1.608398-6.002679L373.440802 612.068597c-3.615025-2.324866-8.612241-1.662585-11.938271 0.912572-2.736857 2.115861-4.371058 6.635717-0.800758 8.93134z" fill="#231815" p-id="1995"></path><path d="M686.786861 624.264039l-56.759252 36.499456 30.963814 37.429231z" fill="#F5F5F5" p-id="1996"></path><path d="M330.176612 595.077204c51.094594 52.797604 126.383968 79.738702 199.026797 80.664176 69.440654 0.885049 139.608958-23.020736 187.03434-75.230027 2.508929-2.7618 1.681507-6.191903-1.953301-7.291118-3.862736-1.168024-9.01391 0.137617-11.749047 3.147988-50.286094 55.358999-126.045947 74.627953-198.584703 66.204075-58.52763-6.796557-117.169653-31.838542-158.485702-74.530761-4.818314-4.976573-20.608139 1.53959-15.288384 7.035667z" fill="#231815" p-id="1997"></path><path d="M678.633917 618.99847l-56.758392 36.498596c-2.785023 1.791601-3.430103 4.961091-2.018669 7.739234 7.515606 14.788662 17.602928 28.056656 27.523391 41.285085 3.585782 4.782189 11.145253 2.451302 14.588257-1.096635 12.878366-13.272295 20.05509-32.119797 26.06465-49.270309 3.791347-10.822713 7.137159-21.890557 9.773384-33.056452 1.254895-5.313735-6.792257-6.222006-10.027975-5.380823l-5.169237 1.346066c-3.393118 0.883329-7.807182 4.093244-6.714847 8.172727 1.101796 4.113027 6.507562 4.604147 9.90154 3.719958l5.169237-1.345206-10.027976-5.380822c-2.317125 9.810368-5.080646 18.75633-8.514189 28.767103-5.611331 16.364376-12.185121 34.519492-24.456252 47.16563l14.588257-1.096635c-9.919602-13.22843-20.006925-26.495564-27.523391-41.285086l-2.018668 7.739234 56.758392-36.499456c3.111863-2.000606 4.019275-6.621096 0.800758-8.934781-3.665772-2.634505-8.493546-1.3022-11.93827 0.912572z" fill="#231815" p-id="1998"></path></svg>