<?xml version="1.0" standalone="no"?><!DOCTYPE svg PUBLIC "-//W3C//DTD SVG 1.1//EN" "http://www.w3.org/Graphics/SVG/1.1/DTD/svg11.dtd"><svg t="1503555203742" class="icon" style="" viewBox="0 0 1024 1024" version="1.1" xmlns="http://www.w3.org/2000/svg" p-id="4100" xmlns:xlink="http://www.w3.org/1999/xlink" width="32" height="32"><defs><style type="text/css"></style></defs><path d="M332.234846 305.31439l55.402865-47.131226s-53.004029-51.879871-36.843499-94.545427c0 0.00086-46.486146 70.011764-18.559366 141.676653z" fill="#221714" p-id="4101"></path><path d="M332.234846 308.754814a3.440424 3.440424 0 0 1-3.206475-2.19155c-14.784361-37.941854-8.853931-75.307437-1.274677-99.971835 8.183908-26.631461 19.689545-44.125155 20.174645-44.856246a3.443004 3.443004 0 0 1 4.436427-1.157702 3.438704 3.438704 0 0 1 1.647102 4.279887c-15.187751 40.097279 35.517215 90.365312 36.031559 90.867613a3.443004 3.443004 0 0 1-0.176322 5.078926l-55.402864 47.131226a3.443004 3.443004 0 0 1-2.229395 0.819681z m12.058685-125.874786c-3.285605 6.994382-6.928153 15.817348-10.023674 25.933054-6.908371 22.573481-12.385526 56.233727-0.505743 90.684411l48.840257-41.549138c-8.970045-9.487829-37.274412-41.97145-38.31084-75.068327z" fill="#221714" p-id="4102"></path><path d="M731.35067 305.31439l-55.402864-47.131226s53.002309-51.879871 36.841778-94.545427c0 0.00086 46.486146 70.011764 18.561086 141.676653z" fill="#221714" p-id="4103"></path><path d="M731.35067 308.754814a3.440424 3.440424 0 0 1-2.229394-0.819681l-55.402865-47.131226a3.442144 3.442144 0 0 1-0.178042-5.078066c0.513483-0.504022 51.202967-50.81592 36.032419-90.868473a3.442144 3.442144 0 0 1 1.646243-4.279887 3.442144 3.442144 0 0 1 4.437286 1.157702c0.4851 0.73195 11.991597 18.224785 20.174645 44.856246 7.579254 24.665258 13.509684 62.029981-1.274677 99.971835a3.444724 3.444724 0 0 1-3.205615 2.19155z m-50.369524-50.806459l48.841116 41.549998c16.113225-46.691712 0.699266-92.457089-10.532857-116.528874-1.085454 33.065913-29.345955 65.500509-38.308259 74.978876z" fill="#221714" p-id="4104"></path><path d="M237.624911 494.648653c0 163.599033 132.623177 296.22307 296.22135 296.223069S830.06589 658.247685 830.06589 494.648653c0-163.598173-132.620597-296.217909-296.218769-296.21791s-296.22221 132.619737-296.22221 296.21791z m0 0" fill="#4D308D" p-id="4105"></path><path d="M533.846261 798.438074c-41.009852 0-80.782871-8.049732-118.213822-23.874821-36.191538-15.277202-68.670859-37.226246-96.537432-65.092818-27.868293-27.869153-49.817337-60.415562-65.091098-96.540012-15.82939-37.431811-23.879122-77.271919-23.879121-118.211242 0-41.009852 8.048871-80.782871 23.879121-118.212962 15.273761-36.191538 37.221945-68.670859 65.091098-96.537431 27.866573-27.869153 60.412982-49.818197 96.537432-65.091959 37.431811-15.82853 77.271919-23.879122 118.213822-23.879121 40.939323 0 80.779431 8.049732 118.211242 23.879121 36.194979 15.273761 68.670859 37.221945 96.540012 65.091959 27.865713 27.866573 49.815616 60.412982 65.092818 96.537431 15.824229 37.430951 23.874821 77.271919 23.874821 118.212962 0 41.010712-8.049732 80.780291-23.874821 118.211242-15.277202 36.194979-37.226246 68.670859-65.092818 96.540012-27.869153 27.865713-60.415562 49.815616-96.540012 65.092818-37.431811 15.825089-77.20139 23.874821-118.211242 23.874821z m0-592.438398c-38.946458 0-76.791119 7.636881-112.365101 22.705077-34.33715 14.518588-65.230435 35.368417-91.722559 61.8614-26.492123 26.488683-47.338511 57.384549-61.8571 91.718258-15.072497 35.577423-22.707657 73.351556-22.707657 112.365102 0 39.013546 7.635161 76.79198 22.707657 112.365961 14.518588 34.404238 35.364976 65.230435 61.8571 91.722559s57.385409 47.339371 91.722559 61.8571c35.573122 15.071637 73.350696 22.708517 112.365101 22.708517 38.943017 0 76.787679-7.636881 112.365102-22.708517 34.404238-14.517728 65.230435-35.364976 91.719118-61.8571 26.492123-26.492123 47.342812-57.385409 61.86054-91.722559 15.069056-35.573122 22.705077-73.351556 22.705077-112.365961 0-39.012686-7.636881-76.786819-22.705077-112.365102-14.517728-34.333709-35.368417-65.229575-61.86054-91.718258-26.488683-26.492984-57.385409-47.342812-91.719118-61.8614-35.576562-15.068196-73.350696-22.705077-112.365102-22.705077z m0 0" fill="#221714" p-id="4106"></path><path d="M261.363836 470.912309c0 150.485857 121.994848 272.479845 272.483285 272.479845 150.484997 0 272.482425-121.993988 272.482426-272.479845 0-150.487578-121.997428-272.481565-272.482426-272.481566-150.488438 0-272.483285 121.993988-272.483285 272.481566z m0 0" fill="#6F5EA6" p-id="4107"></path><path d="M533.846261 798.438074c-41.009852 0-80.782871-8.049732-118.213822-23.874821-36.191538-15.277202-68.670859-37.226246-96.537432-65.092818-27.868293-27.869153-49.817337-60.415562-65.091098-96.540012-15.82939-37.431811-23.879122-77.271919-23.879121-118.211242 0-41.009852 8.048871-80.782871 23.879121-118.212962 15.273761-36.191538 37.221945-68.670859 65.091098-96.537431 27.866573-27.869153 60.412982-49.818197 96.537432-65.091959 37.431811-15.82853 77.271919-23.879122 118.213822-23.879121 40.939323 0 80.779431 8.049732 118.211242 23.879121 36.194979 15.273761 68.670859 37.221945 96.540012 65.091959 27.865713 27.866573 49.815616 60.412982 65.092818 96.537431 15.824229 37.430951 23.874821 77.271919 23.874821 118.212962 0 41.010712-8.049732 80.780291-23.874821 118.211242-15.277202 36.194979-37.226246 68.670859-65.092818 96.540012-27.869153 27.865713-60.415562 49.815616-96.540012 65.092818-37.431811 15.825089-77.20139 23.874821-118.211242 23.874821z m0-592.438398c-38.946458 0-76.791119 7.636881-112.365101 22.705077-34.33715 14.518588-65.230435 35.368417-91.722559 61.8614-26.492123 26.488683-47.338511 57.384549-61.8571 91.718258-15.072497 35.577423-22.707657 73.351556-22.707657 112.365102 0 39.013546 7.635161 76.79198 22.707657 112.365961 14.518588 34.404238 35.364976 65.230435 61.8571 91.722559s57.385409 47.339371 91.722559 61.8571c35.573122 15.071637 73.350696 22.708517 112.365101 22.708517 38.943017 0 76.787679-7.636881 112.365102-22.708517 34.404238-14.517728 65.230435-35.364976 91.719118-61.8571 26.492123-26.492123 47.342812-57.385409 61.86054-91.722559 15.069056-35.573122 22.705077-73.351556 22.705077-112.365961 0-39.012686-7.636881-76.786819-22.705077-112.365102-14.517728-34.333709-35.368417-65.229575-61.86054-91.718258-26.488683-26.492984-57.385409-47.342812-91.719118-61.8614-35.576562-15.068196-73.350696-22.705077-112.365102-22.705077z m0 0" fill="#221714" p-id="4108"></path><path d="M439.785934 269.715465c0 16.794429 42.111647 30.411626 94.060327 30.411626s94.060327-13.617197 94.060327-30.411626c0-16.796149-42.111647-30.413346-94.060327-30.413347s-94.060327 13.616337-94.060327 30.413347z m0 0" fill="#9997C5" p-id="4109"></path><path d="M425.392061 363.879004c0 14.393013 4.666935 27.697992 12.246189 34.900519 7.580114 7.196506 16.916564 7.196506 24.495817 0 7.580114-7.202527 12.249629-20.507506 12.249629-34.900519 0-14.398174-4.670375-27.703153-12.249629-34.90482-7.580114-7.196506-16.916564-7.196506-24.495817 0-7.579254 7.201667-12.246189 20.506646-12.246189 34.90482z m0 0M574.386495 366.459322c0 14.393013 4.666935 27.697992 12.246189 34.900519 7.580114 7.196506 16.916564 7.196506 24.495817 0 7.580114-7.202527 12.249629-20.507506 12.249629-34.900519 0-14.398174-4.670375-27.703153-12.249629-34.90482-7.580114-7.196506-16.916564-7.196506-24.495817 0-7.579254 7.201667-12.246189 20.506646-12.246189 34.90482z m0 0" fill="#221714" p-id="4110"></path><path d="M336.459686 475.533658c0 12.007939 15.708975 21.744339 35.092323 21.744338 19.379047 0 35.093183-9.736399 35.093183-21.744338s-15.714136-21.744339-35.093183-21.744339c-19.383348-0.00086-35.092323 9.736399-35.092323 21.744339z m0 0M661.028408 475.533658c0 12.007939 15.714136 21.744339 35.093183 21.744338 19.382488 0 35.093183-9.736399 35.093183-21.744338s-15.710695-21.744339-35.093183-21.744339c-19.379907-0.00086-35.093183 9.736399-35.093183 21.744339z m0 0" fill="#922E6C" p-id="4111"></path><path d="M465.267433 439.128813s-16.772066 36.395383 15.408798 49.397605c0 0-9.438803-18.441532 10.929367-32.035506l-26.338165-17.362099z" fill="#FFFFFF" p-id="4112"></path><path d="M480.66075 492.824368a4.255804 4.255804 0 0 1-1.594637-0.310498c-9.837892-3.97455-16.554459-10.348795-19.963919-18.947274-6.601313-16.649931 1.895674-35.444966 2.260358-36.237124a4.30311 4.30311 0 0 1 6.272753-1.790741l26.338164 17.362099a4.30139 4.30139 0 0 1 0.020643 7.168123c-16.521775 11.025698-10.247302 24.968876-9.476647 26.523087a4.321172 4.321172 0 0 1-0.693246 4.845837 4.317732 4.317732 0 0 1-3.163469 1.386491z m-13.220689-47.112304c-1.779559 5.810016-3.834352 15.925722-0.328561 24.722026 1.475082 3.699316 3.840373 6.861925 7.070931 9.460305-0.338022-7.06577 1.86987-15.655649 10.055499-23.109327l-16.797869-11.073004z" fill="#221714" p-id="4113"></path><path d="M584.57703 439.74723s14.759418 39.527889-20.048209 50.65766c0 0 11.354259-18.623874-8.965745-34.492829l29.013954-16.164831z" fill="#FFFFFF" p-id="4114"></path><path d="M564.528821 494.70628a4.29881 4.29881 0 0 1-3.684694-6.518743c0.061928-0.106653 2.379913-4.119047 2.536452-9.609964 0.206425-7.205108-3.314848-13.690306-10.465769-19.274974a4.30053 4.30053 0 0 1 0.554768-7.145761l29.013094-16.165691a4.29881 4.29881 0 0 1 6.121374 2.252617c0.319099 0.856666 7.737513 21.167207-0.456716 38.045067-4.22484 8.702552-11.730985 14.829947-22.309428 18.213604-0.430053 0.137617-0.872147 0.203845-1.309081 0.203845z m-1.62044-37.962497c8.310344 8.656966 9.869716 18.10007 8.824687 25.578691 3.835212-2.540753 6.733769-5.800555 8.660407-9.753601 4.46653-9.162709 2.982847-20.200448 1.53959-26.425896l-19.024684 10.600806z" fill="#221714" p-id="4115"></path><path d="M521.864985 468.595183c-10.667894 0-19.940696-1.904275-27.568976-4.448468-23.117068-7.70999-36.241424-22.662072-36.787591-23.294249a6.880848 6.880848 0 0 1 10.3961-9.016491c0.223628 0.252871 11.69056 13.079631 31.33624 19.450436 26.259895 8.515909 54.344934 2.070275 83.472423-19.16058a6.880848 6.880848 0 1 1 8.105638 11.12117c-26.46632 19.289596-49.92743 25.348182-68.953834 25.348182z" fill="#221714" p-id="4116"></path></svg>