<?xml version="1.0" standalone="no"?><!DOCTYPE svg PUBLIC "-//W3C//DTD SVG 1.1//EN" "http://www.w3.org/Graphics/SVG/1.1/DTD/svg11.dtd"><svg t="1502176472107" class="icon" style="" viewBox="0 0 1024 1024" version="1.1" xmlns="http://www.w3.org/2000/svg" p-id="2377" xmlns:xlink="http://www.w3.org/1999/xlink" width="16" height="16"><defs><style type="text/css"></style></defs><path d="M760 433.6c-8 0-15.2 6.4-15.2 15.2v304.8c0 20-16 36-36 36H273.6c-20 0-36-16-36-36v-440c0-20 16-36 36-36h313.6c8 0 15.2-6.4 15.2-15.2 0-8-6.4-15.2-15.2-15.2H273.6c-36.8 0-66.4 29.6-66.4 66.4v440c0 36.8 29.6 66.4 66.4 66.4h435.2c36.8 0 66.4-29.6 66.4-66.4V448c-0.8-8-7.2-14.4-15.2-14.4z" fill="#E74E68" p-id="2378"></path><path d="M443.04 502.96l226.272-225.12 73.36 73.72-226.288 225.128zM808 248l-34.4-34.4c-11.2-11.2-28.8-11.2-39.2 0l-36 35.2 73.6 73.6 36-35.2c5.6-5.6 8-12 8-20 0.8-7.2-2.4-14.4-8-19.2zM399.2 612.8c-0.8 2.4 0 4 1.6 5.6 1.6 1.6 4 2.4 5.6 1.6l76-16-66.4-66.4-16.8 75.2z" fill="#E74E68" p-id="2379"></path></svg>